<?xml version="1.0" standalone="no"?>
<!DOCTYPE svg PUBLIC "-//W3C//DTD SVG 20010904//EN"
 "http://www.w3.org/TR/2001/REC-SVG-20010904/DTD/svg10.dtd">
<svg version="1.0" xmlns="http://www.w3.org/2000/svg"
 width="256.000000pt" height="256.000000pt" viewBox="0 0 256.000000 256.000000"
 preserveAspectRatio="xMidYMid meet">
<metadata>
Created by potrace 1.14, written by Peter Selinger 2001-2017
</metadata>
<g transform="translate(0.000000,256.000000) scale(0.100000,-0.100000)"
fill="#000000" stroke="none">
<path d="M0 1280 l0 -1280 1280 0 1280 0 0 1280 0 1280 -1280 0 -1280 0 0
-1280z m560 880 l0 -80 40 0 40 0 0 -80 0 -80 -40 0 -40 0 0 -80 0 -80 40 0
40 0 0 -80 0 -80 40 0 40 0 0 -80 0 -80 -80 0 -80 0 0 80 0 80 -40 0 -40 0 0
80 0 80 -120 0 -120 0 0 -160 0 -160 -80 0 -80 0 0 400 0 400 240 0 240 0 0
-80z m1360 0 l0 -80 -80 0 -80 0 0 -80 0 -80 80 0 80 0 0 -80 0 -80 -80 0 -80
0 0 -160 0 -160 -80 0 -80 0 0 320 0 320 40 0 40 0 0 80 0 80 120 0 120 0 0
-80z m480 0 l0 -80 -80 0 -80 0 0 -80 0 -80 80 0 80 0 0 -80 0 -80 -80 0 -80
0 0 -160 0 -160 -80 0 -80 0 0 320 0 320 40 0 40 0 0 80 0 80 120 0 120 0 0
-80z m-1360 -320 l0 -240 80 0 80 0 0 240 0 240 80 0 80 0 0 -320 0 -320 -200
0 -200 0 0 80 0 80 -40 0 -40 0 0 240 0 240 80 0 80 0 0 -240z m-720 -1040 l0
-320 200 0 200 0 0 -80 0 -80 -280 0 -280 0 0 400 0 400 80 0 80 0 0 -320z
m1120 240 l0 -80 -80 0 -80 0 0 -240 0 -240 80 0 80 0 0 -80 0 -80 -240 0
-240 0 0 80 0 80 80 0 80 0 0 240 0 240 -80 0 -80 0 0 80 0 80 240 0 240 0 0
-80z m800 0 l0 -80 40 0 40 0 0 -80 0 -80 -40 0 -40 0 0 -80 0 -80 40 0 40 0
0 -80 0 -80 -40 0 -40 0 0 -80 0 -80 -280 0 -280 0 0 80 0 80 40 0 40 0 0 240
0 240 -40 0 -40 0 0 80 0 80 280 0 280 0 0 -80z"/>
<path d="M240 2000 l0 -80 120 0 120 0 0 80 0 80 -120 0 -120 0 0 -80z"/>
<path d="M1920 880 l0 -80 120 0 120 0 0 80 0 80 -120 0 -120 0 0 -80z"/>
<path d="M1920 560 l0 -80 120 0 120 0 0 80 0 80 -120 0 -120 0 0 -80z"/>
</g>
</svg>
